# xmcd
#
# Track frame offsets: 
#        150
#        17592
#        30042
#        42557
#        56525
#        78672
#        95852
#        115522
#        129990
#        146055
#        157530
#        170845
#
# Disc length: 2517 seconds
#
# Revision: 0
# Processed by: cddbd v1.4PL0 Copyright (c) Steve Scherf et al.
# Submitted via: ExactAudioCopy v0.90b4
#
DISCID=9109d30c
DTITLE=Manolo and Ricao - Gipsy Guitars - CD1
DYEAR=1900
DGENRE=Latin
TTITLE0=A Donde Vas
TTITLE1=Como Si Sale
TTITLE2=Le Meteque
TTITLE3=Viens Ma Fille
TTITLE4=Sabes Bien Que Te Queiro
TTITLE5=Pensando A Ti
TTITLE6=Pidame Lo
TTITLE7=Robes Mi Carino
TTITLE8=Sangre A Ti
TTITLE9=Bandoleo Es
TTITLE10=Pena Pena
TTITLE11=Ma Vieille Guitare
EXTD=
EXTT0=
EXTT1=
EXTT2=
EXTT3=
EXTT4=
EXTT5=
EXTT6=
EXTT7=
EXTT8=
EXTT9=
EXTT10=
EXTT11=
PLAYORDER=
